<svg width="120" height="60" xmlns="http://www.w3.org/2000/svg">
 <!-- Created with Method Draw - http://github.com/duopixel/Method-Draw/ -->

 <g id="Layer_1">
  <title>Layer 1</title>
  <g stroke="null" id="svg_20">
   <path stroke="null" d="m103.26974,34.79221c0,-10.36004 -8.82041,-18.75836 -19.7011,-18.75836s-19.7011,8.39832 -19.7011,18.75836c0,10.36004 8.82041,18.75836 19.7011,18.75836s19.7011,-8.39832 19.7011,-18.75836zm0,0" fill="#89c8fd" id="svg_4"/>
   <path stroke="null" d="m83.56864,16.03385c-1.01113,0 -2.00486,0.07262 -2.97479,0.21265c9.46886,1.36551 16.72586,9.14848 16.72586,18.54571c0,9.39723 -7.257,17.1802 -16.72586,18.54571c0.96992,0.14003 1.96366,0.21265 2.97479,0.21265c10.88069,0 19.7011,-8.39832 19.7011,-18.75836c0,-10.36004 -8.82041,-18.75836 -19.7011,-18.75836zm0,0" fill="#60b6ff" id="svg_5"/>
   <g stroke="null" fill="#baeb6c" id="svg_6" transform="matrix(0.117233 0 0 0.111328 -45.8111 -32.3044)">
    <path stroke="null" d="m1081.76831,499.68059c-25.88672,16.22266 -45.30469,42.17578 -30.74219,71.37891c14.5625,29.19921 46.92188,17.84375 76.85547,13.78906c29.9336,-4.05469 7.28125,88.41406 25.07813,111.125c17.79687,22.71094 67.95312,-22.71094 63.10156,-51.91406c-7.1875,-43.23438 -9.70703,-58.40235 48.53906,-89.22266l0.15625,-0.05859c-19.63281,-66.48047 -79.0625,-115.8086 -150.62109,-120.24219l-0.00781,0.2539s-6.47266,48.66797 -32.35938,64.89063zm0,0" id="svg_7"/>
    <path stroke="null" d="m1208.90112,471.3759c0.01172,0.00781 0.02344,0.01953 0.03516,0.02735c-0.01172,-0.00782 -0.02344,-0.01563 -0.03516,-0.02735zm0,0" id="svg_8"/>
    <path stroke="null" d="m1229.45191,491.03215c0,0.00391 0.0039,0.00781 0.00781,0.00781c-0.00391,-0.0039 -0.00391,-0.0039 -0.00781,-0.00781zm0,0" id="svg_9"/>
    <path stroke="null" d="m991.97144,678.9384c-7.77344,-11.85547 13.7539,-39.74219 18.60547,-60.83203c4.85546,-21.08984 -24.26954,-19.46875 -33.16797,-26.76953c-8.89844,-7.30078 -21.03516,-38.9336 -29.9336,-46.23438l-1.42187,-1.12109c-6.78125,18.28125 -10.49219,38.0625 -10.49219,58.71094c0,55.69531 26.95313,105.07031 68.49219,135.74609l0.05078,-3.53125s6.47266,-27.57812 -12.13281,-55.96875zm0,0" id="svg_10"/>
    <path stroke="null" d="m1216.06128,644.0595c-0.03516,-0.21094 -0.07031,-0.41797 -0.10547,-0.62891c-3.21484,12.98828 -7.93359,25.38281 -13.96094,36.98437c9.5586,-11.28125 15.94532,-25.03515 14.06641,-36.35546zm0,0" id="svg_11"/>
   </g>
   <path stroke="null" d="m84.80233,16.07169l-0.00091,0.02827s-0.06319,0.45227 -0.22622,1.13807c6.90851,2.48314 11.96647,8.55661 12.66254,15.83121c0.87055,-1.13068 2.46281,-2.22743 5.20404,-3.60468l0.01832,-0.00652c-2.30161,-7.40115 -9.26874,-12.89276 -17.65777,-13.38634l0,-0.00001zm0,0" fill="#96d629" id="svg_12"/>
   <path stroke="null" d="m83.54208,59c-1.39535,0 -2.80077,-0.10872 -4.20528,-0.3292c-6.71388,-1.05283 -12.59431,-4.52532 -16.5578,-9.77774c-3.96348,-5.25243 -5.5356,-11.65641 -4.42646,-18.03168c0.08014,-0.46184 0.54083,-0.77408 1.02579,-0.69798c0.48634,0.0761 0.81559,0.51228 0.735,0.97412c-1.03083,5.92866 0.43092,11.88385 4.11689,16.76837s9.15379,8.11347 15.39783,9.09281c12.88968,2.02217 25.10573,-6.29135 27.2347,-18.53005c1.03083,-5.92866 -0.43092,-11.88385 -4.11689,-16.76837c-3.68552,-4.88452 -9.15379,-8.11347 -15.39737,-9.09281c-0.48634,-0.0761 -0.81559,-0.51228 -0.73545,-0.97412c0.08059,-0.46184 0.54083,-0.77408 1.02579,-0.69798c6.71434,1.05283 12.59476,4.52532 16.5578,9.77774c3.96348,5.25243 5.5356,11.65641 4.42693,18.03168s-4.7658,11.95908 -10.29728,15.72249c-4.37471,2.97629 -9.50732,4.53271 -14.78418,4.53271l-0.00001,0.00001zm0,0" fill="#09a66d" id="svg_13"/>
   <path stroke="null" d="m78.12371,22.47175c-9.52702,-1.53511 -15.43721,-12.92624 -15.43721,-12.92624s9.53663,-8.90234 19.06365,-7.36766c9.52702,1.53468 15.43721,12.92581 15.43721,12.92581s-9.53663,8.90277 -19.06365,7.3681l0,-0.00001zm0,0" fill="#49cb5c" id="svg_14"/>
   <path stroke="null" d="m81.75015,2.17785c-1.8194,-0.29311 -3.63834,-0.20483 -5.3918,0.12872c9.12906,1.9465 14.76038,12.79709 14.76038,12.79709s-6.24266,5.8269 -13.6723,7.23937c0.22393,0.04784 0.44925,0.09176 0.67729,0.12872c9.52702,1.53468 19.06365,-7.3681 19.06365,-7.3681s-5.91019,-11.39113 -15.43721,-12.92581l0,0.00001zm0,0" fill="#07b128" id="svg_15"/>
   <path stroke="null" d="m96.64882,14.1578l-9.31682,-1.49249l-8.70272,-10.64141c-0.69424,0.0387 -1.38207,0.12307 -2.06074,0.24397l8.16235,9.9804l-7.02528,-1.12546l-5.99446,-7.36505c-0.56235,0.24092 -1.10914,0.49663 -1.63622,0.7619l5.03599,6.18741l-11.6166,-1.86127c-0.5216,0.4327 -0.80781,0.69971 -0.80781,0.69971s0.19142,0.36834 0.55869,0.97934l11.55341,1.85083l-6.40752,4.70492c0.4126,0.40356 0.84536,0.80235 1.29781,1.18938l7.50474,-5.51031l7.43742,1.19156l-10.11502,7.43159c0.62783,0.27832 1.27674,0.51924 1.94579,0.7132l10.56425,-7.76079l9.32278,1.49336c0.54037,-0.44749 0.83849,-0.72494 0.83849,-0.72494s-0.18455,-0.35486 -0.53854,-0.94586l0.00001,0.00001zm0,0" fill="#09a66d" id="svg_16"/>
   <path stroke="null" d="m103.66724,11.41461c2.55577,-5.74297 11.41099,-7.67643 11.41099,-7.67643s4.71176,7.37766 2.15599,13.12063c-2.55532,5.74297 -11.41099,7.67643 -11.41099,7.67643s-4.71176,-7.37767 -2.15599,-13.12063zm0,0" fill="#49cb5c" id="svg_17"/>
   <path stroke="null" d="m115.07823,3.73818s-2.01357,0.44009 -4.39761,1.52293c1.22316,2.46053 3.16209,7.4542 1.31795,11.5977c-1.33673,3.00412 -4.39761,4.96584 -7.01292,6.15349c0.47214,0.94977 0.83803,1.52293 0.83803,1.52293s8.85521,-1.93346 11.41099,-7.67643c2.55532,-5.74297 -2.15645,-13.12063 -2.15645,-13.12063l0.00001,0.00001zm0,0" fill="#07b128" id="svg_18"/>
   <path stroke="null" d="m117.95822,12.12215l-6.80959,2.71275l4.47089,-10.15043c-0.3201,-0.60013 -0.54128,-0.94629 -0.54128,-0.94629s-0.4213,0.09219 -1.10684,0.29572l-4.62063,10.49007l-2.86534,-6.69491c-0.48542,0.40661 -0.94336,0.84844 -1.35871,1.32724l3.24681,7.58641l-3.0499,6.92409c0.29766,0.55186 0.49961,0.86845 0.49961,0.86845s0.45795,-0.10002 1.19432,-0.32181l3.14926,-7.14936l7.78868,-3.1024c0.05175,-0.61448 0.049,-1.2307 0.00274,-1.83952l-0.00001,-0.00001zm0,0" fill="#09a66d" id="svg_19"/>
  </g>
  <text font-style="normal" font-weight="normal" xml:space="preserve" text-anchor="start" font-family="'arial'" font-size="22" id="svg_26" y="41.33333" x="2.5" stroke-opacity="null" stroke-dasharray="null" stroke-width="0" stroke="#000" fill="#333333">Tap &amp; Save</text>
 </g>
</svg>