<svg id="Capa_1" enable-background="new 0 0 497 497" height="200" viewBox="0 0 497 497" width="200" xmlns="http://www.w3.org/2000/svg"><g><path d="m420.955 428.809-365.261-60.684v-172.825h365.261z" fill="#eef5f6"/><path d="m139.518 337.06h-47.378c-2.761 0-5-2.239-5-5v-57.377c0-2.761 2.239-5 5-5h47.377c2.761 0 5 2.239 5 5v57.377c.001 2.762-2.238 5-4.999 5z" fill="#a4ccff"/><path d="m149.518 269.683h-20c2.761 0 5 2.239 5 5v57.377c0 2.761-2.239 5-5 5h20c2.761 0 5-2.239 5-5v-57.377c0-2.762-2.239-5-5-5z" fill="#8bb3ea"/><path d="m409.86 195.3h31.446v233.509h-31.446z" fill="#deecf1"/><path d="m409.86 368.125h-354.166v71.03h369.889z" fill="#f26c72"/><path d="m425.955 247.549c-24.501 0-44.364-19.862-44.364-44.364l-10-46.003 98.728 10v36.003c0 24.502-19.862 44.364-44.364 44.364z" fill="#f26c72"/><path d="m409.86 368.125h31.64v71.03h-31.64z" fill="#e95059"/><path d="m337.228 247.549c-24.502 0-44.364-19.862-44.364-44.364l-10-46.003 98.728 10v36.003c-.001 24.502-19.863 44.364-44.364 44.364z" fill="#fde588"/><path d="m248.5 247.549c-24.501 0-44.364-19.862-44.364-44.364l-11-46.003 99.728 10v36.003c0 24.502-19.863 44.364-44.364 44.364z" fill="#f26c72"/><path d="m440.319 164.144v39.041c0 19.236-12.245 35.607-29.364 41.758 4.686 1.684 9.735 2.606 15 2.606 24.501 0 44.364-19.862 44.364-44.364v-36.003z" fill="#e95059"/><path d="m159.773 247.549c-24.502 0-44.364-19.862-44.364-44.364l-10-46.003 98.728 10v36.003c-.001 24.502-19.863 44.364-44.364 44.364z" fill="#fde588"/><path d="m71.045 247.549c-24.502 0-44.364-19.862-44.364-44.364v-36.003l88.728-10v46.003c0 24.502-19.863 44.364-44.364 44.364z" fill="#f26c72"/><path d="m419.629 114.869h-354.258c-5.375 0-10.338 2.876-13.012 7.538l-25.677 44.776h431.638l-25.677-44.776c-2.675-4.663-7.639-7.538-13.014-7.538z" fill="#a4ccff"/><path d="m444.642 122.407c-2.674-4.662-7.638-7.538-13.012-7.538h-30c5.375 0 10.338 2.876 13.012 7.538l25.677 44.776h30z" fill="#8bb3ea"/><path d="m382.677 133.54h-278.354c-5.523 0-10-4.477-10-10v-85.54c0-5.523 4.477-10 10-10h278.354c5.523 0 10 4.477 10 10v85.54c0 5.523-4.477 10-10 10z" fill="#fde588"/><path d="m392.677 28h-21c5.523 0 10 4.477 10 10v85.54c0 5.523-4.477 10-10 10h21c5.523 0 10-4.477 10-10v-85.54c0-5.523-4.477-10-10-10z" fill="#fdd76f"/><g fill="#a4ccff"><path d="m230.765 43.844c-4.143 0-7.5 3.358-7.5 7.5v21.213h-26.15v-21.213c0-4.142-3.357-7.5-7.5-7.5s-7.5 3.358-7.5 7.5v59.465c0 4.142 3.357 7.5 7.5 7.5s7.5-3.358 7.5-7.5v-23.252h26.15v23.253c0 4.142 3.357 7.5 7.5 7.5s7.5-3.358 7.5-7.5v-59.466c0-4.142-3.358-7.5-7.5-7.5z"/><path d="m156.537 74.509c-7.293-2.69-14.083-5.619-16.18-6.537-1.585-1.28-1.531-3.06-1.424-3.803.148-1.037.903-3.571 4.683-4.71 8.346-2.51 16.082 3.594 16.303 3.771 3.172 2.629 7.874 2.209 10.528-.948 2.665-3.171 2.256-7.902-.915-10.567-.563-.472-13.959-11.524-30.242-6.619-8.234 2.48-14.06 8.972-15.204 16.941-1.074 7.479 2.168 14.673 8.459 18.775.332.216.68.405 1.041.566.344.154 8.535 3.8 17.76 7.202 2.592.956 8.534 3.651 7.754 8.021-.588 3.297-4.61 6.707-10.322 6.707-5.892 0-11.561-2.374-15.164-6.351-2.781-3.069-7.524-3.303-10.594-.522-3.069 2.781-3.303 7.524-.521 10.594 6.4 7.063 16.224 11.279 26.279 11.279 12.564 0 23.116-8.02 25.089-19.07 1.485-8.316-2.288-19.181-17.33-24.729z"/><path d="m351.835 43.844h-16.558c-4.088 0-7.5 3.413-7.5 7.5v59.465c0 4.142 3.357 7.5 7.5 7.5s7.5-3.358 7.5-7.5v-18.37c3.313-.017 6.949-.032 9.058-.032 13.569 0 24.609-10.893 24.609-24.282s-11.04-24.281-24.609-24.281zm0 33.563c-2.094 0-5.686.015-8.983.032-.018-3.412-.033-7.162-.033-9.314 0-1.825-.009-5.707-.019-9.281h9.035c5.209 0 9.609 4.25 9.609 9.281s-4.4 9.282-9.609 9.282z"/><path d="m282.602 43.844c-20.53 0-37.233 16.702-37.233 37.232s16.703 37.233 37.233 37.233 37.232-16.703 37.232-37.233-16.702-37.232-37.232-37.232zm0 59.466c-12.26 0-22.233-9.974-22.233-22.233s9.974-22.232 22.233-22.232 22.232 9.974 22.232 22.232c0 12.259-9.974 22.233-22.232 22.233z"/><path d="m299.867 438.727-112.734-10v-154.044c0-2.761 2.239-5 5-5h48.867l7.597 10 7.403-10h38.867c2.761 0 5 2.239 5 5z"/></g><path d="m304.867 269.683h-20c2.762 0 5 2.239 5 5v164.044l20-10v-154.044c0-2.762-2.239-5-5-5z" fill="#8bb3ea"/><path d="m241 428.727 15 10v-169.044h-15z" fill="#eef5f6"/><path d="m452 428.809h-427c-13.807 0-25 11.193-25 25v10.191c0 2.762 2.239 5 5 5h467c2.761 0 5-2.238 5-5v-10.191c0-13.807-11.193-25-25-25z" fill="#7f8c93"/><path d="m472 428.809h-30.5c13.807 0 25 11.193 25 25v10.191c0 2.762-2.239 5-5 5h30.5c2.761 0 5-2.238 5-5v-10.191c0-13.807-11.193-25-25-25z" fill="#455b6b"/><path d="m394.86 337.06h-47.377c-2.761 0-5-2.239-5-5v-57.377c0-2.761 2.239-5 5-5h47.377c2.761 0 5 2.239 5 5v57.377c0 2.762-2.239 5-5 5z" fill="#a4ccff"/><path d="m404.86 269.683h-20c2.761 0 5 2.239 5 5v57.377c0 2.761-2.239 5-5 5h20c2.761 0 5-2.239 5-5v-57.377c0-2.762-2.239-5-5-5z" fill="#8bb3ea"/></g></svg>