<svg id="Capa_1" enable-background="new 0 0 509.999 509.999" height="512" viewBox="0 0 509.999 509.999" width="512" xmlns="http://www.w3.org/2000/svg"><g><g><g><g><path d="m471.711 348.662c-5.839-106.598-94.126-191.237-202.182-191.237-31.207 0-60.755 7.076-87.153 19.687v-.318l-.987.785c-.304.147-.613.285-.916.434l-.02.311-68.665 54.633c-17.397 21.592-30.453 46.83-37.842 74.386l-29.968-37.622h-6.999v36.945c0 33.972 13.489 66.553 37.502 90.583l107.895-.009h288.271z" fill="#e1763a"/></g><g><path d="m470.646 374.347c-97.66 0-195.319-.006-292.979 0-31.316.002-62.632.005-93.948.008-19.41-25.808-25.74-55.396-25.74-87.057l-14.002-17.578h-6.999c0 13.767-.439 27.611.076 41.368 1.207 32.228 14.607 63.326 37.425 86.161 110.908-.009 221.816-.009 332.724-.009h63.442c.393-17.879.001-22.893.001-22.893z" fill="#b45e2e"/></g><g><circle cx="324.091" cy="372.981" fill="#bc1e4b" r="24.26"/></g><g><path d="m335.389 377.314c-13.398 0-24.26-10.862-24.26-24.26 0-.197.01-.39.015-.586-6.796 4.299-11.313 11.876-11.313 20.512 0 13.398 10.862 24.26 24.26 24.26 13.202 0 23.933-10.547 24.245-23.674-3.747 2.371-8.185 3.748-12.947 3.748z" fill="#99173a"/></g><g><path d="m437.175 355.546c6.636-14.708-5.392-31.562-21.388-30.233 6.089-13.946-4.528-30.091-19.704-30.091-15.221 0-25.844 16.205-19.659 30.184-16.462-2.046-29.249 15.38-22.097 30.49-19.976 5.029-21.559 33.794-2.246 40.981l97.007.5v-35.513c-2.873-3.146-6.852-5.466-11.913-6.318z" fill="#d4e157"/></g><g><path d="m449.089 376.414-87.786-.452c2.177-6.184 7.079-11.422 14.583-13.311-7.151-15.111 5.635-32.536 22.097-30.49-5.408-12.222 2.034-26.146 14.164-29.452-15.565-18.096-45.316 1.015-35.722 22.697-16.462-2.046-29.249 15.38-22.097 30.49-6.298 1.585-10.763 5.533-13.326 10.417-5.932 11.304-1.103 26.029 11.08 30.564 4.12.021 8.24.042 12.361.064l84.646.436z" fill="#c0ca33"/></g><g><path d="m382.166 191.625v25.929c0 8.192-6.641 14.833-14.833 14.833-8.192 0-14.833-6.641-14.833-14.833v-.408c0-8.163-6.595-14.791-14.758-14.833l-.668-.003c-8.221-.042-14.908 6.611-14.908 14.833v45.283c0 8.163-6.595 14.791-14.758 14.833l-.667.003c-8.221.042-14.908-6.611-14.908-14.833v-30.209c0-8.192-6.641-14.833-14.833-14.833h-22.501s-11.667-34-65.472-43.302c0 0 44.798-19.369 100.336-15.7s92.803 33.24 92.803 33.24z" fill="#f8e868"/></g><g><g><path d="m367.333 210.997c-8.192 0-14.833 0-14.833 0v6.148.408c0 8.192 6.641 14.833 14.833 14.833s14.833-6.641 14.833-14.833v-6.556s-6.641 0-14.833 0z" fill="#e8ab4c"/></g></g><g><g><path d="m321.643 261.368-.667.003c-8.221.042-6.644-6.611-6.644-14.833v-16.263c0-15.894-12.884-28.778-28.778-28.778h-16.82s-8.554-24.914-44.77-37.923c-21.406 4.661-34.938 10.51-34.938 10.51 53.805 9.302 65.472 43.302 65.472 43.302h22.502c8.192 0 14.833 6.641 14.833 14.833v30.208c0 8.222 6.687 14.875 14.909 14.833l.667-.003c8.162-.042 14.757-6.67 14.757-14.833v-1.086c-.175.008-.347.03-.523.03z" fill="#e8ab4c"/></g></g><g><path d="m7.5 397.249h494.999v29.999h-494.999z" fill="#9eb6f4"/></g><g><path d="m7.5 397.249h22.665v29.999h-22.665z" fill="#6e91ef"/></g><g><path d="m57.605 146.417 43.899 43.899 28.728-28.728-43.899-43.899c13.21-13.218 1.786-36.428-16.561-34.862-13.273 0-47.105 33.561-47.029 47.029-1.567 18.348 21.645 29.772 34.862 16.561z" fill="#d4b981"/></g><g><path d="m102.166 162.387-37.894-37.34c-11.697 11.691-31.207 4.084-34.459-10.536-4.297 5.926-7.092 11.468-7.07 15.344-1.566 18.348 21.646 29.771 34.863 16.561l43.899 43.899 28.728-28.728-13.356-12.909z" fill="#ad935c"/></g><g><path d="m239.497 197.903c-17.519-17.519-41.828-24.104-64.455-19.762-15.163-17.359-42.7-18.341-59.013-2.028s-15.338 43.853 2.028 59.013c-9.471 49.351 32.109 92.928 84.369 84.163 55.554-10.703 76.934-81.523 37.071-121.386z" fill="#e1763a"/></g><g><path d="m223.94 310.799c-52.26 8.765-93.84-34.812-84.369-84.163-17.366-15.16-18.341-42.7-2.028-59.013 1.068-1.068 2.187-2.057 3.344-2.978-9.102.797-17.979 4.588-24.858 11.468-16.313 16.313-15.338 43.853 2.028 59.013-9.471 49.351 32.109 92.927 84.369 84.163 8.489-1.635 16.175-4.68 22.971-8.798-.485.104-.967.214-1.457.308z" fill="#b45e2e"/></g><g><circle cx="470.647" cy="372.981" fill="#bc1e4b" r="24.26"/></g><g><path d="m487.646 382.005c-13.398 0-24.26-10.862-24.26-24.26 0-2.924.518-5.727 1.466-8.323-10.6 2.599-18.466 12.157-18.466 23.558 0 13.398 10.861 24.26 24.26 24.26 10.475 0 19.398-6.638 22.794-15.938-1.857.456-3.796.703-5.794.703z" fill="#99173a"/></g><g><g><path d="m201.144 214.906c-3.877-1.414-7.975-2.148-12.18-2.184l.125-14.999c5.921.049 11.705 1.089 17.193 3.09z" fill="#fff"/></g><g><path d="m219.723 230.501c-2.149-3.717-4.793-6.885-7.856-9.415l9.549-11.567c4.447 3.671 8.246 8.204 11.294 13.473z" fill="#fff"/></g></g></g></g><g><path d="m497.602 389.749c3.041-4.87 4.805-10.616 4.805-16.769 0-14.701-10.042-27.097-23.625-30.699-8.997-108.342-99.774-192.356-209.251-192.356-31.229 0-68.03 10.795-91.792 20.172-10.841-10.402-26.235-15.105-41.047-12.658l-40.496-40.497c9.683-17.537-3.205-40.279-22.946-41.634-14.815-1.016-28.002 11.33-37.722 21.1-9.508 9.558-21.308 22.468-20.302 36.936 1.371 19.714 24.077 32.63 41.635 22.932l40.496 40.496c-1.92 11.625.487 23.752 6.854 33.684-14.541 18.535-25.7 39.01-33.272 61.07l-23.345-29.306h-18.115v44.445c0 30.472 9.983 59.411 28.398 83.083h-57.877v45h419.499v-15h-404.499v-15h479.999v15h-30.5v15h45.5v-45h-12.397zm-190.603-16.769c0-14.443 17.984-22.107 28.412-12.032-5.328 8.507-5.94 19.76-1.586 28.801 0 0-26.826 1.472-26.826-16.769zm97.042 16.694v-36.62h-15v36.331h-35.45c-5.988-2.79-7.891-8.652-7.631-13.396.607-11.037 10.346-12.857 19.053-15.049-3.945-8.336-8.856-17.66.192-25.022 6.477-5.269 15.894-2.374 23.436-1.437-1.744-3.942-3.94-7.907-5.306-11.991-3.023-9.038 2.259-19.771 12.748-19.768 10.336.003 15.771 10.584 12.83 19.59-1.28 3.921-3.377 7.733-5.028 11.515 7.329-.609 16.315-2.934 22.456 2.253 8.817 7.446 3.782 16.857-.003 25.246 4.371.736 9.765.92 13.765 2.971-2.431 8.538-1.112 17.849 3.588 25.377zm83.365-16.694c0 9.242-7.519 16.76-16.76 16.76s-16.76-7.519-16.76-16.76 7.519-16.76 16.76-16.76 16.76 7.519 16.76 16.76zm-112.74-177.309v21.883c0 9.457-14.666 9.457-14.666 0-.283-28.946-45.334-29.925-45.334-.411v45.283c0 9.623-15.333 9.594-15.333.003v-30.209c0-23.74-24.74-22.333-41.42-22.333-3.521-6.253-7.899-12.074-13.112-17.287-9.025-9.025-19.919-15.586-31.698-19.396 18.151-5.492 37.029-8.279 56.426-8.279 38.624 0 74.738 11.265 105.137 30.746zm-344.423-65.687c1.17-11.214 15.342-23.088 23.129-29.684 7.105-6.018 17.255-14.719 26.376-6.866 9.441 8.127 2.678 17.553-4.021 24.255l43.897 43.897-18.121 18.122-43.898-43.898c-11.606 12.411-28.55 5.56-27.362-5.826zm14.236 176.682v-24.278l32.861 41.253c7.155-26.684 15.982-51.884 31.924-74.8.025 20.837 8.233 41.026 23.251 56.043l10.605-10.606c-16.595-16.595-21.469-39.478-16.889-61.966-15.79-12.685-20.165-35.632-4.9-50.896 15.255-15.257 38.221-10.898 50.892 4.903 27.774-5.099 48.73 3.648 61.969 16.887 12.164 12.163 18.862 28.335 18.862 45.536s-6.698 33.373-18.862 45.536c-21.229 21.227-53.86 25.045-79.351 9.288l-7.887 12.76c12.953 8.006 27.394 11.914 41.733 11.914 20.467 0 40.723-7.968 56.111-23.355 14.996-14.996 23.255-34.935 23.255-56.143 0-8.215-1.253-16.234-3.644-23.855 6.123 0 19.921-2.436 19.921 7.333v30.208c0 29.205 45.333 28.872 45.333-.003v-45.283c0-9.904 15.162-9.394 15.334.411 0 28.722 44.666 28.802 44.666 0v-11.247c41.082 32.143 69.005 80.453 74.028 135.689-6.313 1.416-12.703 5.578-16.199 9.276 2.004-14.052-8.768-28.849-22.522-32.557.997-16.325-12.482-30.992-28.889-30.994-16.348-.001-29.808 14.551-28.898 30.827-13.657 3.313-23.497 16.673-22.299 30.729-5.738-5.105-13.233-8.057-21.128-8.057-17.513 0-31.76 14.248-31.76 31.76 0 6.153 1.764 11.898 4.805 16.769h-219.157c-21.41-22.514-33.165-51.896-33.165-83.082z"/><path d="m434.499 419.749h15v15h-15z"/></g></g></svg>